<svg width="137" height="53" viewBox="0 0 137 53" fill="none" xmlns="http://www.w3.org/2000/svg">
    <path d="M3.39453 39.3066L3.39453 43.4199H5.94922V41.2988C5.96094 40.4082 6.18945 39.7129 6.63477 39.2129C7.08008 38.7129 7.68555 38.4629 8.45117 38.4629C9.2207 38.4629 9.83398 38.7148 10.291 39.2188C10.748 39.7227 10.9844 40.4102 11 41.2812V44.5508H2.46875L2.46875 39.3066H3.39453ZM6.875 43.4199H10.0801V41.3633C10.0801 40.8047 9.93164 40.3711 9.63477 40.0625C9.33789 39.75 8.93945 39.5938 8.43945 39.5938C7.95898 39.5938 7.58008 39.7441 7.30273 40.0449C7.02539 40.3418 6.88281 40.7656 6.875 41.3164V43.4199ZM7.00977 30.377C7.8457 30.377 8.57617 30.5176 9.20117 30.7988C9.82227 31.0801 10.2969 31.4785 10.625 31.9941C10.9531 32.5098 11.1172 33.1113 11.1172 33.7988C11.1172 34.4707 10.9531 35.0664 10.625 35.5859C10.293 36.1055 9.82227 36.5098 9.21289 36.7988C8.59961 37.084 7.89063 37.2305 7.08594 37.2383H6.4707C5.65039 37.2383 4.92578 37.0957 4.29688 36.8105C3.66797 36.5254 3.1875 36.123 2.85547 35.6035C2.51953 35.0801 2.35156 34.4824 2.35156 33.8105C2.35156 33.127 2.51758 32.5254 2.84961 32.0059C3.17773 31.4824 3.65625 31.0801 4.28516 30.7988C4.91016 30.5176 5.63867 30.377 6.4707 30.377H7.00977ZM6.45898 31.4961C5.44727 31.4961 4.67188 31.6992 4.13281 32.1055C3.58984 32.5117 3.31836 33.0801 3.31836 33.8105C3.31836 34.5215 3.58984 35.082 4.13281 35.4922C4.67188 35.8984 5.42188 36.1074 6.38281 36.1191H7.00977C7.99023 36.1191 8.76172 35.9141 9.32422 35.5039C9.88281 35.0898 10.1621 34.5215 10.1621 33.7988C10.1621 33.0723 9.89844 32.5098 9.37109 32.1113C8.83984 31.7129 8.08008 31.5078 7.0918 31.4961H6.45898ZM2.46875 22.4258H11V23.5508H3.39453V26.6094L6.77539 26.7617C7.9082 26.8203 8.75977 26.9375 9.33008 27.1133C9.90039 27.2852 10.3203 27.5391 10.5898 27.875C10.8555 28.2109 10.9922 28.6602 11 29.2227V29.5918H10.0801L10.0684 29.3574C10.041 28.9941 9.92383 28.7148 9.7168 28.5195C9.50586 28.3242 9.17188 28.1758 8.71484 28.0742C8.25781 27.9727 7.55469 27.9004 6.60547 27.8574L2.46875 27.6816L2.46875 22.4258ZM7.05664 15.5586V19.2559H10.0801V14.9609H11V20.3809H2.46875L2.46875 15.0195H3.39453V19.2559H6.13672V15.5586H7.05664ZM7.05664 8.73828L7.05664 12.4355H10.0801V8.14062H11V13.5605H2.46875L2.46875 8.19922H3.39453V12.4355H6.13672L6.13672 8.73828H7.05664Z" fill="white"/>
    <path d="M35.853 42H30.5356V16.314L22.6914 18.9946V14.4902L35.1719 9.89795H35.853V42ZM67.8232 28.5308C67.8232 33.1304 66.959 36.6021 65.2305 38.9458C63.5166 41.2749 60.9019 42.4395 57.3862 42.4395C53.9292 42.4395 51.3218 41.3042 49.564 39.0337C47.8208 36.7485 46.9272 33.3721 46.8833 28.9043V23.3672C46.8833 18.7676 47.7402 15.3179 49.4541 13.0181C51.1826 10.7183 53.812 9.56836 57.3423 9.56836C60.8433 9.56836 63.4507 10.689 65.1646 12.9302C66.8931 15.1714 67.7793 18.5259 67.8232 22.9937V28.5308ZM62.4839 22.5542C62.4839 19.5513 62.0737 17.354 61.2534 15.9624C60.4331 14.5562 59.1294 13.853 57.3423 13.853C55.5991 13.853 54.3174 14.5195 53.4971 15.8525C52.6768 17.1709 52.2446 19.2363 52.2007 22.0488V29.2998C52.2007 32.2881 52.6182 34.5146 53.4531 35.9795C54.2881 37.4443 55.5991 38.1768 57.3862 38.1768C59.1001 38.1768 60.3672 37.5029 61.1875 36.1553C62.0078 34.793 62.4399 32.6689 62.4839 29.7832V22.5542Z" fill="#E1DECE"/>
    <path d="M83.4414 14.9688V23.5H82.3164V15.8945H79.2578L79.1055 19.2754C79.0469 20.4082 78.9297 21.2598 78.7539 21.8301C78.582 22.4004 78.3281 22.8203 77.9922 23.0898C77.6562 23.3555 77.207 23.4922 76.6445 23.5H76.2754V22.5801L76.5098 22.5684C76.873 22.541 77.1523 22.4238 77.3477 22.2168C77.543 22.0059 77.6914 21.6719 77.793 21.2148C77.8945 20.7578 77.9668 20.0547 78.0098 19.1055L78.1855 14.9688H83.4414ZM90.3086 19.5566H86.6113V22.5801H90.9062V23.5H85.4863V14.9688H90.8477V15.8945H86.6113V18.6367H90.3086V19.5566ZM98.3184 15.8945H95.5762V23.5H94.457V15.8945H91.7207V14.9688H98.3184V15.8945ZM83.5469 37.5H82.416V33.5566H78.1152V37.5H76.9902V28.9688H78.1152V32.6367H82.416V28.9688H83.5469V37.5ZM90.3613 35.2734H86.7871L85.9844 37.5H84.8242L88.082 28.9688H89.0664L92.3301 37.5H91.1758L90.3613 35.2734ZM87.127 34.3477H90.0273L88.5742 30.3574L87.127 34.3477ZM97.5801 34.1602V37.5H96.4551V28.9688H99.6016C100.535 28.9688 101.266 29.207 101.793 29.6836C102.324 30.1602 102.59 30.791 102.59 31.5762C102.59 32.4043 102.33 33.043 101.811 33.4922C101.295 33.9375 100.555 34.1602 99.5898 34.1602H97.5801ZM97.5801 33.2402H99.6016C100.203 33.2402 100.664 33.0996 100.984 32.8184C101.305 32.5332 101.465 32.123 101.465 31.5879C101.465 31.0801 101.305 30.6738 100.984 30.3691C100.664 30.0645 100.225 29.9062 99.666 29.8945H97.5801V33.2402ZM105.203 32.4492H107.324C108.215 32.4609 108.91 32.6895 109.41 33.1348C109.91 33.5801 110.16 34.1855 110.16 34.9512C110.16 35.7207 109.908 36.334 109.404 36.791C108.9 37.248 108.213 37.4844 107.342 37.5H104.078V28.9688H105.203V32.4492ZM105.203 33.375V36.5801H107.26C107.818 36.5801 108.252 36.4316 108.561 36.1348C108.873 35.8379 109.029 35.4395 109.029 34.9395C109.029 34.459 108.879 34.0801 108.578 33.8027C108.281 33.5254 107.857 33.3828 107.307 33.375H105.203ZM112.316 37.5H111.191V28.9688H112.316V37.5ZM120.965 37.5H119.834V33.5566H115.533V37.5H114.408V28.9688H115.533V32.6367H119.834V28.9688H120.965V37.5ZM125.178 33.668H124.141V37.5H123.016V28.9688H124.141V32.7305H125.02L128.002 28.9688H129.402L126.145 33.1055L129.643 37.5H128.266L125.178 33.668ZM135.496 33.5566H131.799V36.5801H136.094V37.5H130.674V28.9688H136.035V29.8945H131.799V32.6367H135.496V33.5566Z" fill="white"/>
</svg>
