<svg width="170" height="53" viewBox="0 0 170 53" fill="none" xmlns="http://www.w3.org/2000/svg">
    <path d="M3.39453 39.3066L3.39453 43.4199H5.94922V41.2988C5.96094 40.4082 6.18945 39.7129 6.63477 39.2129C7.08008 38.7129 7.68555 38.4629 8.45117 38.4629C9.2207 38.4629 9.83398 38.7148 10.291 39.2188C10.748 39.7227 10.9844 40.4102 11 41.2812V44.5508H2.46875L2.46875 39.3066H3.39453ZM6.875 43.4199H10.0801V41.3633C10.0801 40.8047 9.93164 40.3711 9.63477 40.0625C9.33789 39.75 8.93945 39.5938 8.43945 39.5938C7.95898 39.5938 7.58008 39.7441 7.30273 40.0449C7.02539 40.3418 6.88281 40.7656 6.875 41.3164V43.4199ZM7.00977 30.377C7.8457 30.377 8.57617 30.5176 9.20117 30.7988C9.82227 31.0801 10.2969 31.4785 10.625 31.9941C10.9531 32.5098 11.1172 33.1113 11.1172 33.7988C11.1172 34.4707 10.9531 35.0664 10.625 35.5859C10.293 36.1055 9.82227 36.5098 9.21289 36.7988C8.59961 37.084 7.89063 37.2305 7.08594 37.2383H6.4707C5.65039 37.2383 4.92578 37.0957 4.29688 36.8105C3.66797 36.5254 3.1875 36.123 2.85547 35.6035C2.51953 35.0801 2.35156 34.4824 2.35156 33.8105C2.35156 33.127 2.51758 32.5254 2.84961 32.0059C3.17773 31.4824 3.65625 31.0801 4.28516 30.7988C4.91016 30.5176 5.63867 30.377 6.4707 30.377H7.00977ZM6.45898 31.4961C5.44727 31.4961 4.67188 31.6992 4.13281 32.1055C3.58984 32.5117 3.31836 33.0801 3.31836 33.8105C3.31836 34.5215 3.58984 35.082 4.13281 35.4922C4.67188 35.8984 5.42188 36.1074 6.38281 36.1191H7.00977C7.99023 36.1191 8.76172 35.9141 9.32422 35.5039C9.88281 35.0898 10.1621 34.5215 10.1621 33.7988C10.1621 33.0723 9.89844 32.5098 9.37109 32.1113C8.83984 31.7129 8.08008 31.5078 7.0918 31.4961H6.45898ZM2.46875 22.4258H11V23.5508H3.39453V26.6094L6.77539 26.7617C7.9082 26.8203 8.75977 26.9375 9.33008 27.1133C9.90039 27.2852 10.3203 27.5391 10.5898 27.875C10.8555 28.2109 10.9922 28.6602 11 29.2227V29.5918H10.0801L10.0684 29.3574C10.041 28.9941 9.92383 28.7148 9.7168 28.5195C9.50586 28.3242 9.17188 28.1758 8.71484 28.0742C8.25781 27.9727 7.55469 27.9004 6.60547 27.8574L2.46875 27.6816L2.46875 22.4258ZM7.05664 15.5586V19.2559H10.0801V14.9609H11V20.3809H2.46875L2.46875 15.0195H3.39453V19.2559H6.13672V15.5586H7.05664ZM7.05664 8.73828L7.05664 12.4355H10.0801V8.14062H11V13.5605H2.46875L2.46875 8.19922H3.39453V12.4355H6.13672L6.13672 8.73828H7.05664Z" fill="white"/>
    <path d="M42.9062 42H21.395V38.3306L32.0518 26.707C33.5898 24.9932 34.6812 23.5649 35.3257 22.4224C35.9849 21.2651 36.3145 20.1079 36.3145 18.9507C36.3145 17.4272 35.8823 16.1968 35.0181 15.2593C34.1685 14.3218 33.0186 13.853 31.5684 13.853C29.8398 13.853 28.4995 14.3804 27.5474 15.4351C26.5952 16.4897 26.1191 17.9326 26.1191 19.7637H20.7798C20.7798 17.8154 21.2192 16.0649 22.0981 14.5122C22.9917 12.9448 24.2588 11.729 25.8994 10.8647C27.5547 10.0005 29.459 9.56836 31.6123 9.56836C34.7178 9.56836 37.1641 10.3521 38.9512 11.9194C40.7529 13.4722 41.6538 15.6255 41.6538 18.3794C41.6538 19.9761 41.1997 21.6533 40.2915 23.4111C39.3979 25.1543 37.9258 27.1392 35.875 29.3657L28.0527 37.7373H42.9062V42ZM67.8232 28.5308C67.8232 33.1304 66.959 36.6021 65.2305 38.9458C63.5166 41.2749 60.9019 42.4395 57.3862 42.4395C53.9292 42.4395 51.3218 41.3042 49.564 39.0337C47.8208 36.7485 46.9272 33.3721 46.8833 28.9043V23.3672C46.8833 18.7676 47.7402 15.3179 49.4541 13.0181C51.1826 10.7183 53.812 9.56836 57.3423 9.56836C60.8433 9.56836 63.4507 10.689 65.1646 12.9302C66.8931 15.1714 67.7793 18.5259 67.8232 22.9937V28.5308ZM62.4839 22.5542C62.4839 19.5513 62.0737 17.354 61.2534 15.9624C60.4331 14.5562 59.1294 13.853 57.3423 13.853C55.5991 13.853 54.3174 14.5195 53.4971 15.8525C52.6768 17.1709 52.2446 19.2363 52.2007 22.0488V29.2998C52.2007 32.2881 52.6182 34.5146 53.4531 35.9795C54.2881 37.4443 55.5991 38.1768 57.3862 38.1768C59.1001 38.1768 60.3672 37.5029 61.1875 36.1553C62.0078 34.793 62.4399 32.6689 62.4839 29.7832V22.5542ZM93.3994 28.5308C93.3994 33.1304 92.5352 36.6021 90.8066 38.9458C89.0928 41.2749 86.478 42.4395 82.9624 42.4395C79.5054 42.4395 76.8979 41.3042 75.1401 39.0337C73.397 36.7485 72.5034 33.3721 72.4595 28.9043V23.3672C72.4595 18.7676 73.3164 15.3179 75.0303 13.0181C76.7588 10.7183 79.3882 9.56836 82.9185 9.56836C86.4194 9.56836 89.0269 10.689 90.7407 12.9302C92.4692 15.1714 93.3555 18.5259 93.3994 22.9937V28.5308ZM88.0601 22.5542C88.0601 19.5513 87.6499 17.354 86.8296 15.9624C86.0093 14.5562 84.7056 13.853 82.9185 13.853C81.1753 13.853 79.8936 14.5195 79.0732 15.8525C78.2529 17.1709 77.8208 19.2363 77.7769 22.0488V29.2998C77.7769 32.2881 78.1943 34.5146 79.0293 35.9795C79.8643 37.4443 81.1753 38.1768 82.9624 38.1768C84.6763 38.1768 85.9434 37.5029 86.7637 36.1553C87.584 34.793 88.0161 32.6689 88.0601 29.7832V22.5542Z" fill="#E1DECE"/>
    <path d="M104.92 19.9199L106.883 14.9688H108.189L105.172 22.0762C104.969 22.5293 104.779 22.8516 104.604 23.043C104.428 23.2305 104.221 23.375 103.982 23.4766C103.748 23.5742 103.453 23.623 103.098 23.623C102.789 23.623 102.592 23.6055 102.506 23.5703L102.541 22.6797L103.074 22.7031C103.484 22.7031 103.789 22.5059 103.988 22.1113L104.135 21.8066L104.357 21.2852L101.451 14.9688H102.711L104.92 19.9199ZM115.672 20.793C115.566 21.6953 115.232 22.3926 114.67 22.8848C114.111 23.373 113.367 23.6172 112.438 23.6172C111.43 23.6172 110.621 23.2559 110.012 22.5332C109.406 21.8105 109.104 20.8438 109.104 19.6328V18.8125C109.104 18.0195 109.244 17.3223 109.525 16.7207C109.811 16.1191 110.213 15.6582 110.732 15.3379C111.252 15.0137 111.854 14.8516 112.537 14.8516C113.443 14.8516 114.17 15.1055 114.717 15.6133C115.264 16.1172 115.582 16.8164 115.672 17.7109H114.541C114.443 17.0312 114.23 16.5391 113.902 16.2344C113.578 15.9297 113.123 15.7773 112.537 15.7773C111.818 15.7773 111.254 16.043 110.844 16.5742C110.438 17.1055 110.234 17.8613 110.234 18.8418V19.668C110.234 20.5938 110.428 21.3301 110.814 21.877C111.201 22.4238 111.742 22.6973 112.438 22.6973C113.062 22.6973 113.541 22.5566 113.873 22.2754C114.209 21.9902 114.432 21.4961 114.541 20.793H115.672ZM123.729 23.5H122.598V15.8945H118.391V23.5H117.266V14.9688H123.729V23.5ZM130.602 19.5566H126.904V22.5801H131.199V23.5H125.779V14.9688H131.141V15.8945H126.904V18.6367H130.602V19.5566ZM133.771 14.9688V22.5801H136.707V14.9688H137.826V22.5801H140.744V14.9688H141.869V23.5H132.641V14.9688H133.771ZM150.453 23.5H149.322V19.5566H145.021V23.5H143.896V14.9688H145.021V18.6367H149.322V14.9688H150.453V23.5ZM153.629 18.4492H155.75C156.641 18.4609 157.336 18.6895 157.836 19.1348C158.336 19.5801 158.586 20.1855 158.586 20.9512C158.586 21.7207 158.334 22.334 157.83 22.791C157.326 23.248 156.639 23.4844 155.768 23.5H152.504V14.9688H153.629V18.4492ZM153.629 19.375V22.5801H155.686C156.244 22.5801 156.678 22.4316 156.986 22.1348C157.299 21.8379 157.455 21.4395 157.455 20.9395C157.455 20.459 157.305 20.0801 157.004 19.8027C156.707 19.5254 156.283 19.3828 155.732 19.375H153.629ZM160.742 23.5H159.617V14.9688H160.742V23.5ZM165.723 18.2383L167.768 14.9688H169.092L166.396 19.1992L169.156 23.5H167.82L165.723 20.1719L163.613 23.5H162.283L165.049 19.1992L162.348 14.9688H163.666L165.723 18.2383ZM108.506 37.5H107.375V29.8945H103.168V37.5H102.043V28.9688H108.506V37.5ZM111.682 34.1602V37.5H110.557V28.9688H113.703C114.637 28.9688 115.367 29.207 115.895 29.6836C116.426 30.1602 116.691 30.791 116.691 31.5762C116.691 32.4043 116.432 33.043 115.912 33.4922C115.396 33.9375 114.656 34.1602 113.691 34.1602H111.682ZM111.682 33.2402H113.703C114.305 33.2402 114.766 33.0996 115.086 32.8184C115.406 32.5332 115.566 32.123 115.566 31.5879C115.566 31.0801 115.406 30.6738 115.086 30.3691C114.766 30.0645 114.326 29.9062 113.768 29.8945H111.682V33.2402ZM124.689 33.5098C124.689 34.3457 124.549 35.0762 124.268 35.7012C123.986 36.3223 123.588 36.7969 123.072 37.125C122.557 37.4531 121.955 37.6172 121.268 37.6172C120.596 37.6172 120 37.4531 119.48 37.125C118.961 36.793 118.557 36.3223 118.268 35.7129C117.982 35.0996 117.836 34.3906 117.828 33.5859V32.9707C117.828 32.1504 117.971 31.4258 118.256 30.7969C118.541 30.168 118.943 29.6875 119.463 29.3555C119.986 29.0195 120.584 28.8516 121.256 28.8516C121.939 28.8516 122.541 29.0176 123.061 29.3496C123.584 29.6777 123.986 30.1562 124.268 30.7852C124.549 31.4102 124.689 32.1387 124.689 32.9707V33.5098ZM123.57 32.959C123.57 31.9473 123.367 31.1719 122.961 30.6328C122.555 30.0898 121.986 29.8184 121.256 29.8184C120.545 29.8184 119.984 30.0898 119.574 30.6328C119.168 31.1719 118.959 31.9219 118.947 32.8828V33.5098C118.947 34.4902 119.152 35.2617 119.562 35.8242C119.977 36.3828 120.545 36.6621 121.268 36.6621C121.994 36.6621 122.557 36.3984 122.955 35.8711C123.354 35.3398 123.559 34.5801 123.57 33.5918V32.959ZM131.199 33.5566H127.502V36.5801H131.797V37.5H126.377V28.9688H131.738V29.8945H127.502V32.6367H131.199V33.5566ZM135.412 33.668H134.375V37.5H133.25V28.9688H134.375V32.7305H135.254L138.236 28.9688H139.637L136.379 33.1055L139.877 37.5H138.5L135.412 33.668ZM146.803 29.8945H144.061V37.5H142.941V29.8945H140.205V28.9688H146.803V29.8945ZM154.467 33.5098C154.467 34.3457 154.326 35.0762 154.045 35.7012C153.764 36.3223 153.365 36.7969 152.85 37.125C152.334 37.4531 151.732 37.6172 151.045 37.6172C150.373 37.6172 149.777 37.4531 149.258 37.125C148.738 36.793 148.334 36.3223 148.045 35.7129C147.76 35.0996 147.613 34.3906 147.605 33.5859V32.9707C147.605 32.1504 147.748 31.4258 148.033 30.7969C148.318 30.168 148.721 29.6875 149.24 29.3555C149.764 29.0195 150.361 28.8516 151.033 28.8516C151.717 28.8516 152.318 29.0176 152.838 29.3496C153.361 29.6777 153.764 30.1562 154.045 30.7852C154.326 31.4102 154.467 32.1387 154.467 32.9707V33.5098ZM153.348 32.959C153.348 31.9473 153.145 31.1719 152.738 30.6328C152.332 30.0898 151.764 29.8184 151.033 29.8184C150.322 29.8184 149.762 30.0898 149.352 30.6328C148.945 31.1719 148.736 31.9219 148.725 32.8828V33.5098C148.725 34.4902 148.93 35.2617 149.34 35.8242C149.754 36.3828 150.322 36.6621 151.045 36.6621C151.771 36.6621 152.334 36.3984 152.732 35.8711C153.131 35.3398 153.336 34.5801 153.348 33.5918V32.959ZM156.154 37.5V28.9688H158.943C159.869 28.9688 160.564 29.1602 161.029 29.543C161.498 29.9258 161.732 30.4922 161.732 31.2422C161.732 31.6406 161.619 31.9941 161.393 32.3027C161.166 32.6074 160.857 32.8438 160.467 33.0117C160.928 33.1406 161.291 33.3867 161.557 33.75C161.826 34.1094 161.961 34.5391 161.961 35.0391C161.961 35.8047 161.713 36.4062 161.217 36.8438C160.721 37.2812 160.02 37.5 159.113 37.5H156.154ZM157.279 33.5098V36.5801H159.137C159.66 36.5801 160.072 36.4453 160.373 36.1758C160.678 35.9023 160.83 35.5273 160.83 35.0508C160.83 34.0234 160.271 33.5098 159.154 33.5098H157.279ZM157.279 32.6074H158.979C159.471 32.6074 159.863 32.4844 160.156 32.2383C160.453 31.9922 160.602 31.6582 160.602 31.2363C160.602 30.7676 160.465 30.4277 160.191 30.2168C159.918 30.002 159.502 29.8945 158.943 29.8945H157.279V32.6074Z" fill="white"/>
</svg>
